<svg xmlns="http://www.w3.org/2000/svg" viewBox="0 0 512 512">
  <defs>
    <radialGradient id="g" cx="50%" cy="38%" r="62%">
      <stop offset="0%" stop-color="#ffffff"/>
      <stop offset="28%" stop-color="#ff8ab8"/>
      <stop offset="62%" stop-color="#ff174d"/>
      <stop offset="100%" stop-color="#75001e"/>
    </radialGradient>
    <filter id="blur">
      <feGaussianBlur stdDeviation="10"/>
    </filter>
  </defs>
  <rect width="512" height="512" rx="116" fill="#050006"/>
  <path filter="url(#blur)" fill="#ff174d" opacity="0.65" d="M256 421S87 320 87 190c0-67 47-113 105-113 33 0 63 16 81 42 18-26 48-42 81-42 58 0 105 46 105 113 0 130-203 231-203 231z"/>
  <path fill="url(#g)" d="M256 421S87 320 87 190c0-67 47-113 105-113 33 0 63 16 81 42 18-26 48-42 81-42 58 0 105 46 105 113 0 130-203 231-203 231z"/>
</svg>
