<svg xmlns="http://www.w3.org/2000/svg" viewBox="0 0 512 512">
  <defs>
    <radialGradient id="g" cx="50%" cy="40%" r="64%">
      <stop offset="0%" stop-color="#ffffff"/>
      <stop offset="22%" stop-color="#ff7596"/>
      <stop offset="58%" stop-color="#ff113f"/>
      <stop offset="100%" stop-color="#590011"/>
    </radialGradient>
  </defs>
  <rect width="512" height="512" rx="116" fill="#020002"/>
  <path fill="#ff174d" opacity="0.35" d="M256 424S82 321 82 188c0-67 48-114 106-114 34 0 65 17 83 45 18-28 49-45 83-45 58 0 106 47 106 114 0 133-204 236-204 236z"/>
  <path fill="url(#g)" d="M256 424S82 321 82 188c0-67 48-114 106-114 34 0 65 17 83 45 18-28 49-45 83-45 58 0 106 47 106 114 0 133-204 236-204 236z"/>
</svg>
